HIERARCHY
ROOT Hips
{
    OFFSET 0.000000 0.000000 0.000000
    CHANNELS 6 Xposition Yposition Zposition Zrotation Xrotation Yrotation
    JOINT Spine
    {
        OFFSET -0.000000 8.359812 0.000000
        CHANNELS 3 Zrotation Xrotation Yrotation
        JOINT Spine1
        {
            OFFSET -0.000000 28.141317 0.000000
            CHANNELS 3 Zrotation Xrotation Yrotation
            JOINT Neck
            {
                OFFSET -0.000000 28.025745 2.547795
                CHANNELS 3 Zrotation Xrotation Yrotation
                JOINT Head
                {
                    OFFSET -0.000000 14.272848 -2.038978
                    CHANNELS 3 Zrotation Xrotation Yrotation
                    End Site
                    {
                        OFFSET -0.000000 25.487228 0.000000
                    }
                }
            }
            JOINT LeftShoulder
            {
                OFFSET 4.059574 26.120710 -0.180480
                CHANNELS 3 Zrotation Xrotation Yrotation
                JOINT LeftArm
                {
                    OFFSET 11.584161 0.000000 0.000000
                    CHANNELS 3 Zrotation Xrotation Yrotation
                    JOINT LeftForeArm
                    {
                        OFFSET 30.766815 0.000000 0.000000
                        CHANNELS 3 Zrotation Xrotation Yrotation
                        JOINT LeftHand
                        {
                            OFFSET 29.436810 0.000000 0.000000
                            CHANNELS 3 Zrotation Xrotation Yrotation
                            End Site
                            {
                                OFFSET 15.292337 0.000000 0.000000
                            }
                        }
                    }
                }
            }
            JOINT RightShoulder
            {
                OFFSET -4.095355 26.120710 -0.180480
                CHANNELS 3 Zrotation Xrotation Yrotation
                JOINT RightArm
                {
                    OFFSET -11.584161 0.000000 0.000000
                    CHANNELS 3 Zrotation Xrotation Yrotation
                    JOINT RightForeArm
                    {
                        OFFSET -30.766815 0.000000 0.000000
                        CHANNELS 3 Zrotation Xrotation Yrotation
                        JOINT RightHand
                        {
                            OFFSET -29.436810 0.000000 0.000000
                            CHANNELS 3 Zrotation Xrotation Yrotation
                            End Site
                            {
                                OFFSET -15.292337 0.000000 0.000000
                            }
                        }
                    }
                }
            }
        }
    }
    JOINT LeftUpLeg
    {
        OFFSET 10.194892 0.000000 0.000000
        CHANNELS 3 Zrotation Xrotation Yrotation
        JOINT LeftLeg
        {
            OFFSET -0.000000 -32.520012 0.000000
            CHANNELS 3 Zrotation Xrotation Yrotation
            JOINT LeftFoot
            {
                OFFSET -0.000000 -49.106510 0.000000
                CHANNELS 3 Zrotation Xrotation Yrotation
                JOINT LeftToeBase
                {
                    OFFSET -0.000000 -6.626679 15.292337
                    CHANNELS 3 Zrotation Xrotation Yrotation
                    End Site
                    {
                        OFFSET -0.000000 0.000000 4.077957
                    }
                }
            }
        }
    }
    JOINT RightUpLeg
    {
        OFFSET -10.194892 0.000000 0.000000
        CHANNELS 3 Zrotation Xrotation Yrotation
        JOINT RightLeg
        {
            OFFSET -0.000000 -32.520012 0.000000
            CHANNELS 3 Zrotation Xrotation Yrotation
            JOINT RightFoot
            {
                OFFSET -0.000000 -49.106510 0.000000
                CHANNELS 3 Zrotation Xrotation Yrotation
                JOINT RightToeBase
                {
                    OFFSET -0.000000 -6.626679 15.292337
                    CHANNELS 3 Zrotation Xrotation Yrotation
                    End Site
                    {
                        OFFSET -0.000000 0.000000 4.077957
                    }
                }
            }
        }
    }
}
MOTION
Frames:    9
Frame Time:    0.008333
13.133176    84.527863    31.231230    -5.335860    -1.898168    73.349670    4.327788    -11.612140    3.691705    0.390365    12.798884    3.207745    2.381284    16.247213    10.328532    -9.431983    -8.622116    8.724258    5.976306    0.904718    3.101858    -91.942566    33.952129    19.752502    -0.593255    0.018632    -14.796263    -7.480010    -0.229963    2.621166    -15.044146    -0.996766    2.313882    61.853012    57.029713    21.269024    -10.554231    -12.868387    34.079155    -9.335189    -9.477252    -2.602280    15.837063    -34.514683    -2.707361    -7.336172    8.213743    -2.439144    -3.765686    -2.239294    30.258816    0.000000    0.000000    0.000000    -2.533141    10.867383    5.384735    4.654915    1.990177    8.123043    -1.589798    -15.774763    -1.274696    0.000000    0.000000    0.000000    
14.241266    84.291428    31.283590    -5.364164    -1.963476    73.246567    4.250783    -11.674644    3.710885    0.418200    12.928867    3.228808    2.139434    16.099728    10.433052    -9.200678    -8.795824    8.866544    5.947007    0.894005    3.157389    -92.284134    33.906395    20.310957    -0.622804    -0.013064    -14.662998    -7.350325    -0.244230    2.351011    -15.071362    -0.997507    2.248086    61.630291    56.738430    21.557192    -10.827003    -13.050527    34.487518    -10.110942    -9.523079    -2.555558    15.889822    -34.484932    -2.475157    -6.972884    7.608256    -4.254265    -3.567575    -2.097529    30.244886    0.000000    0.000000    0.000000    -2.583702    11.301822    4.871071    4.527364    2.607705    9.471906    -1.885236    -16.298134    -2.090767    0.000000    0.000000    0.000000    
15.388389    84.076248    31.317238    -5.363446    -1.936566    73.225426    3.970567    -11.835868    3.714026    0.630586    13.219303    3.229314    1.956052    16.083805    10.523135    -9.253658    -9.278379    8.911187    5.701833    0.823299    3.425768    -92.356575    34.135330    20.677361    -0.740446    -0.023927    -14.568615    -7.321013    -0.284902    2.595983    -15.316532    -1.122103    2.228794    61.762074    56.505592    21.568481    -11.293747    -13.366529    34.855404    -10.320799    -9.650984    -2.598030    15.733362    -34.563435    -2.300175    -6.731516    7.520984    -5.339292    -3.574845    -1.986879    30.380512    0.000000    0.000000    0.000000    -2.664254    11.848617    4.867855    4.327028    2.981336    9.138391    -1.800866    -16.710884    -1.765978    0.000000    0.000000    0.000000    
16.521433    83.878555    31.344097    -5.354355    -1.919810    73.170792    3.840221    -11.858866    3.740844    0.547860    13.271233    3.278204    2.116253    16.187130    10.545697    -9.581730    -9.662565    8.832989    5.818810    0.871009    3.315259    -92.583061    33.672653    20.987194    -0.825682    0.063393    -14.365351    -7.050085    -0.192172    2.464130    -15.252892    -1.110227    2.039504    61.658180    56.396358    21.746656    -11.687919    -13.747916    35.212070    -10.441309    -9.862201    -2.706906    15.627522    -34.707253    -2.032023    -6.672429    7.973405    -6.554145    -3.982867    -2.343254    31.330149    0.000000    0.000000    0.000000    -2.755908    12.254513    4.807094    4.127577    3.561402    9.313352    -1.794562    -17.061810    -1.789857    0.000000    0.000000    0.000000    
17.672657    83.706612    31.359476    -5.356988    -1.874099    73.021019    3.797913    -11.779682    3.674181    0.343035    13.128886    3.242853    1.535918    16.112612    10.628554    -8.845510    -9.837921    9.070258    5.662221    1.078714    3.423129    -92.591461    33.497650    21.407976    -0.948399    0.000501    -14.409741    -6.687037    -0.260878    2.413757    -15.238189    -1.109048    2.324512    62.060768    55.774948    21.610079    -12.495861    -13.400290    35.202942    -8.988118    -9.305562    -2.491159    15.579947    -34.795460    -1.642369    -6.806249    8.686081    -6.499418    -4.430446    -2.614512    31.484858    0.000000    0.000000    0.000000    -2.841413    12.668920    5.309366    3.836370    4.030979    8.582231    -1.516267    -17.269417    -1.284720    0.000000    0.000000    0.000000    
18.842497    83.563080    31.352543    -5.378468    -1.759610    72.999016    3.640010    -11.862326    3.646877    0.199959    13.121775    3.245688    1.404988    16.114952    10.715366    -8.725812    -10.027255    9.173989    5.597931    1.113534    3.414835    -92.794586    33.504154    21.854017    -0.987848    -0.113075    -14.307556    -6.578192    -0.374632    2.388803    -15.203590    -1.131786    2.421914    62.510384    55.371029    21.306213    -12.330662    -14.001665    35.649105    -10.630729    -9.850873    -2.812308    15.382276    -34.906982    -1.558818    -7.112247    9.524111    -6.004904    -4.696607    -2.653513    31.515001    0.000000    0.000000    0.000000    -2.958524    12.922174    5.319995    3.530932    4.790246    8.272638    -1.214645    -17.451740    -0.883969    0.000000    0.000000    0.000000    
20.037642    83.439392    31.342581    -5.458673    -1.655577    72.925072    3.514001    -12.147625    3.695399    0.073637    13.520443    3.312729    1.151582    15.808272    10.742875    -8.381323    -10.333445    9.255913    5.596749    0.939635    3.575563    -92.991310    33.766464    22.224550    -1.089294    -0.265510    -14.324474    -6.305994    -0.535992    2.419678    -15.462069    -1.268499    2.139614    63.040554    55.086033    21.221851    -12.756976    -14.023325    35.823105    -9.978659    -9.724033    -2.889495    15.256627    -35.035286    -1.344068    -7.523537    10.658269    -5.930470    -4.723238    -2.696648    31.984867    0.000000    0.000000    0.000000    -3.054535    12.990385    5.410006    3.214751    5.714246    8.059859    -0.810377    -17.512001    -0.519727    0.000000    0.000000    0.000000    
21.209663    83.334908    31.323772    -5.533408    -1.530838    72.764160    3.418521    -12.110541    3.757940    -0.207908    13.121195    3.419177    1.079007    16.022894    10.701954    -8.033360    -10.450119    9.287424    5.487769    1.149598    3.616853    -92.842255    33.603008    22.344017    -1.203381    -0.212687    -14.027352    -6.347387    -0.495612    2.429945    -15.188119    -1.054922    2.418277    63.437939    54.646511    20.730501    -12.810551    -14.113572    35.999165    -10.735186    -9.757997    -2.888515    15.065137    -35.015953    -1.115061    -7.832085    11.729192    -5.567548    -4.819087    -2.812190    31.861296    0.000000    0.000000    0.000000    -3.181255    12.883707    5.051500    2.855521    6.920118    8.463321    -0.433468    -17.524294    -0.324823    0.000000    0.000000    0.000000    
22.438009    83.243866    31.298464    -5.654484    -1.422821    72.597130    3.321561    -12.467889    3.820362    -0.278176    13.545601    3.490543    0.731863    15.263023    10.782192    -7.569933    -10.010360    9.501415    5.430801    0.967047    3.682040    -93.094360    33.875164    22.754284    -1.235156    -0.381458    -14.031347    -6.101007    -0.650988    2.203789    -15.586796    -1.104249    2.067637    63.926224    54.482998    20.869196    -13.431584    -13.911860    35.858360    -9.852526    -9.407579    -2.697529    14.827153    -34.993210    -0.922614    -8.014211    12.788320    -5.319249    -4.453056    -2.135374    31.663372    0.000000    0.000000    0.000000    -3.275889    12.672093    4.923551    2.464892    8.241861    8.342097    0.389863    -17.322237    0.367814    0.000000    0.000000    0.000000    
